<svg width="16" height="16" viewBox="0 0 16 16" fill="none" xmlns="http://www.w3.org/2000/svg">
<g clip-path="url(#clip0_34712_197602)">
<path d="M15.25 7.22188C15.6656 7.22188 16 7.58438 16 7.97188C16 8.41563 15.6656 8.72188 15.25 8.72188H8.75002V15.25C8.75002 15.6656 8.41564 16 7.97189 16C7.58439 16 7.22189 15.6656 7.22189 15.25V8.72188H0.721894C0.335644 8.72188 0 8.41563 0 7.97188C0 7.58438 0.335644 7.22188 0.721894 7.22188H7.22189V0.75C7.22189 0.335938 7.58439 0 7.97189 0C8.41564 0 8.75002 0.335938 8.75002 0.75V7.22188H15.25Z" fill="#262AFF"/>
</g>
<defs>
<clipPath id="clip0_34712_197602">
<rect width="16" height="16" fill="white"/>
</clipPath>
</defs>
</svg>
