<svg width="16" height="16" viewBox="0 0 16 16" fill="none" xmlns="http://www.w3.org/2000/svg">
<path d="M0.962812 1.55687C1.24309 1.44262 1.56531 1.50512 1.78031 1.71996L3.06469 3.00434C4.34812 1.74246 6.09937 0.975586 7.97406 0.975586C11.8625 1.00374 15 4.14093 15 8.00031C15 11.8597 11.8625 14.9972 8.00313 14.9972C6.36844 14.9972 4.775 14.4244 3.51875 13.3794C3.20031 13.1137 3.1575 12.6412 3.42306 12.3228C3.68966 12.0034 4.16119 11.9616 4.47963 12.2271C5.46563 13.0472 6.71563 13.5003 8 13.5003C11.0322 13.5003 13.5 11.0325 13.5 8.00031C13.5 4.96812 11.0312 2.5003 8 2.5003C6.52875 2.5003 5.15844 3.10312 4.15 4.09062L5.77938 5.71999C5.99422 5.93484 6.05769 6.25718 5.94247 6.53749C5.82812 6.81906 5.55312 7.00031 5.25 7.00031H1.25C0.835938 7.00031 0.5 6.66593 0.5 6.25031V2.2503C0.5 1.94655 0.6825 1.67312 0.962812 1.55687Z" fill="#262AFF"/>
</svg>
