<svg width="32" height="32" viewBox="0 0 32 32" fill="none" xmlns="http://www.w3.org/2000/svg">
<rect width="32" height="32" rx="16" fill="black" fill-opacity="0.01"/>
<g clip-path="url(#clip0_34032_188308)">
<path d="M9.83031 18.1071L19.3344 8.60152C20.1156 7.82033 21.3844 7.82033 22.1656 8.60152L23.3969 9.8337C23.4937 9.9312 23.5781 10.0365 23.6531 10.1475C24.1656 10.9237 24.0812 11.979 23.3969 12.6634L13.8906 22.1665C13.85 22.2071 13.8094 22.2196 13.7656 22.2853C13.4656 22.5509 13.1094 22.7196 12.7219 22.8603L8.96156 23.9665C8.69843 24.0446 8.41374 23.9728 8.21968 23.7509C8.02561 23.5853 7.95306 23.3009 8.03049 23.0353L9.13656 19.2759C9.26656 18.8353 9.50499 18.4321 9.83031 18.1071ZM10.5756 19.6978L9.85749 22.1415L12.3 21.4228C12.4719 21.3634 12.6812 21.254 12.8312 21.1071L19.9687 13.9665L18.0031 12.0009L10.8909 19.1665C10.8725 19.1853 10.8547 19.204 10.8375 19.2259C10.7169 19.3603 10.6272 19.5228 10.5756 19.6978Z" fill="#04041C" fill-opacity="0.95"/>
</g>
<defs>
<clipPath id="clip0_34032_188308">
<rect width="16" height="16" fill="white" transform="translate(8 8)"/>
</clipPath>
</defs>
</svg>
