<svg width="44" height="44" viewBox="0 0 44 44" fill="none" xmlns="http://www.w3.org/2000/svg">
<rect x="0.5" y="0.5" width="43" height="43" rx="21.5" fill="#FCFCFC"/>
<rect x="0.5" y="0.5" width="43" height="43" rx="21.5" stroke="#CDD1D3"/>
<g clip-path="url(#clip0_34306_189557)">
<path d="M22 12C16.4766 12 12 16.4766 12 22C12 27.5234 16.4766 32 22 32C27.5234 32 32 27.5234 32 22C32 16.4766 27.5234 12 22 12ZM22 30.125C17.5195 30.125 13.875 26.4801 13.875 22C13.875 17.5199 17.5195 13.875 22 13.875C26.4805 13.875 30.125 17.5199 30.125 22C30.125 26.4801 26.4805 30.125 22 30.125ZM22 25.125C21.2969 25.125 20.75 25.6719 20.75 26.375C20.75 27.0781 21.2617 27.625 22 27.625C22.668 27.625 23.25 27.0781 23.25 26.375C23.25 25.6719 22.668 25.125 22 25.125ZM23.293 17H21.2969C19.7734 17 18.5625 18.2109 18.5625 19.7344C18.5625 20.2422 18.9922 20.6719 19.5 20.6719C20.0078 20.6719 20.4375 20.2422 20.4375 19.7344C20.4375 19.2656 20.793 18.875 21.2617 18.875H23.2578C23.7617 18.875 24.1875 19.2656 24.1875 19.7344C24.1875 20.0469 24.0312 20.2852 23.7578 20.4414L21.5312 21.8047C21.2188 22 21.0625 22.3125 21.0625 22.625V23.25C21.0625 23.7578 21.4922 24.1875 22 24.1875C22.5078 24.1875 22.9375 23.7578 22.9375 23.25V23.1719L24.6992 22.0781C25.5195 21.5703 26.0273 20.6719 26.0273 19.7344C26.0625 18.2109 24.8516 17 23.293 17Z" fill="#04041C" fill-opacity="0.95"/>
</g>
<defs>
<clipPath id="clip0_34306_189557">
<rect width="20" height="20" fill="white" transform="translate(12 12)"/>
</clipPath>
</defs>
</svg>
