<svg width="20" height="16" viewBox="0 0 20 16" fill="none" xmlns="http://www.w3.org/2000/svg">
<g clip-path="url(#clip0_34712_197588)">
<path d="M9.375e-06 5.80625C9.375e-06 5.60625 0.0501875 5.40937 0.145938 5.23125L2.57375 0.781875C2.83656 0.299844 3.34062 0 3.89062 0H16.1094C16.6594 0 17.1625 0.299844 17.425 0.781875L19.8531 5.23125C19.95 5.40937 20 5.60625 20 5.80625C20 6.46563 19.4656 7 18.8062 7H18V15.25C18 15.6656 17.6656 16 17.25 16C16.8344 16 16.5 15.6656 16.5 15.25V7H12V14.75C12 15.4406 11.4406 16 10.75 16H3.22187C2.55969 16 1.97187 15.4406 1.97187 14.75V7H1.19531C0.535 7 0 6.46563 0 5.80625H9.375e-06ZM3.47187 7V10H10.5V7H3.47187ZM3.89062 1.5L1.70875 5.5H18.2906L16.1094 1.5H3.89062ZM10.5 14.5V11.5H3.47187V14.5H10.5Z" fill="#262AFF"/>
</g>
<defs>
<clipPath id="clip0_34712_197588">
<rect width="20" height="16" fill="white"/>
</clipPath>
</defs>
</svg>
