<svg width="44" height="44" viewBox="0 0 44 44" fill="none" xmlns="http://www.w3.org/2000/svg">
<rect x="0.5" y="0.5" width="43" height="43" rx="21.5" fill="#FCFCFC"/>
<rect x="0.5" y="0.5" width="43" height="43" rx="21.5" stroke="#CDD1D3"/>
<g clip-path="url(#clip0_34306_189546)">
<path d="M28.5625 13.25H15.4375C14.9199 13.25 14.5 13.6699 14.5 14.1875C14.5 14.7051 14.9199 15.125 15.4375 15.125H28.5625C29.082 15.125 29.5 14.7051 29.5 14.1875C29.5 13.6699 29.082 13.25 28.5625 13.25ZM22.8711 17.3672C22.625 17.1211 22.3047 17 21.9844 17C21.6641 17 21.3477 17.1211 21.1016 17.3672L15.7926 23.2422C14.7034 24.4492 15.559 26.375 17.184 26.375H18.8602V28.875C18.8602 29.9105 19.6996 30.75 20.7352 30.75H23.2352C24.2707 30.75 25.1102 29.9105 25.1102 28.875V26.375H26.8012C28.4273 26.375 29.2824 24.4465 28.191 23.241L22.8711 17.3672ZM23.2344 24.5V28.875H20.7344V24.5H17.2445L21.9867 19.1328L26.6914 24.5H23.2344Z" fill="#04041C" fill-opacity="0.95"/>
</g>
<defs>
<clipPath id="clip0_34306_189546">
<rect width="15" height="20" fill="white" transform="translate(14.5 12)"/>
</clipPath>
</defs>
</svg>
